<svg width="21" height="19" viewBox="0 0 21 19" fill="none" xmlns="http://www.w3.org/2000/svg">
<path d="M13.5156 5.98438L13.9844 6.45312C14.1146 6.58333 14.1146 6.72656 13.9844 6.88281L9.10156 11.7656C9.04948 11.8177 8.97135 11.8438 8.86719 11.8438C8.78906 11.8438 8.72396 11.8177 8.67188 11.7656L6.09375 9.1875C5.96354 9.03125 5.96354 8.88802 6.09375 8.75781L6.5625 8.28906C6.61458 8.23698 6.67969 8.21094 6.75781 8.21094C6.86198 8.21094 6.9401 8.23698 6.99219 8.28906L8.86719 10.2031L13.0859 5.98438C13.138 5.93229 13.2031 5.90625 13.2812 5.90625C13.3854 5.90625 13.4635 5.93229 13.5156 5.98438ZM2.96875 3.13281C4.92188 1.54427 7.27865 0.75 10.0391 0.75C12.7995 0.75 15.1562 1.54427 17.1094 3.13281C19.0625 4.72135 20.0391 6.63542 20.0391 8.875C20.0391 11.1146 19.0625 13.0286 17.1094 14.6172C15.1562 16.2057 12.7995 17 10.0391 17C8.8151 17 7.60417 16.8177 6.40625 16.4531C4.71354 17.651 2.90365 18.25 0.976562 18.25C0.559896 18.25 0.273438 18.0547 0.117188 17.6641C-0.0390625 17.2995 0.0130208 16.974 0.273438 16.6875C0.325521 16.6354 0.442708 16.5052 0.625 16.2969C0.833333 16.0625 1.08073 15.7109 1.36719 15.2422C1.67969 14.7474 1.92708 14.2656 2.10938 13.7969C0.729167 12.3385 0.0390625 10.6979 0.0390625 8.875C0.0390625 6.63542 1.01562 4.72135 2.96875 3.13281ZM10.0391 15.75C12.4609 15.75 14.5182 15.0859 16.2109 13.7578C17.9297 12.4036 18.7891 10.776 18.7891 8.875C18.7891 6.97396 17.9297 5.35938 16.2109 4.03125C14.5182 2.67708 12.4609 2 10.0391 2C7.61719 2 5.54688 2.67708 3.82812 4.03125C2.13542 5.35938 1.28906 6.97396 1.28906 8.875C1.28906 10.3854 1.86198 11.7396 3.00781 12.9375L3.55469 13.5234L3.28125 14.2656C2.94271 15.151 2.40885 16.0495 1.67969 16.9609C3.08594 16.8307 4.42708 16.3229 5.70312 15.4375L6.21094 15.0469L6.79688 15.2422C7.83854 15.5807 8.91927 15.75 10.0391 15.75Z" fill="white"/>
</svg>
