<svg width="18" height="21" viewBox="0 0 18 21" fill="none" xmlns="http://www.w3.org/2000/svg">
<path d="M15.3516 6.00781C16.7839 7.64844 17.5 9.5625 17.5 11.75C17.5 14.1719 16.6406 16.2422 14.9219 17.9609C13.2292 19.6536 11.1719 20.5 8.75 20.5C6.32812 20.5 4.25781 19.6536 2.53906 17.9609C0.846354 16.2422 0 14.1719 0 11.75C0 9.45833 0.78125 7.47917 2.34375 5.8125C3.90625 4.11979 5.82031 3.19531 8.08594 3.03906V1.75H7.1875C7.05729 1.75 6.9401 1.71094 6.83594 1.63281C6.75781 1.52865 6.71875 1.41146 6.71875 1.28125V0.96875C6.71875 0.838542 6.75781 0.734375 6.83594 0.65625C6.9401 0.552083 7.05729 0.5 7.1875 0.5H10.3125C10.4427 0.5 10.5469 0.552083 10.625 0.65625C10.7292 0.734375 10.7812 0.838542 10.7812 0.96875V1.28125C10.7812 1.41146 10.7292 1.52865 10.625 1.63281C10.5469 1.71094 10.4427 1.75 10.3125 1.75H9.33594V3C11.2891 3.13021 13.0078 3.84635 14.4922 5.14844L15.1562 4.44531C15.3906 4.23698 15.612 4.23698 15.8203 4.44531L16.0547 4.67969C16.263 4.88802 16.263 5.10938 16.0547 5.34375L15.3516 6.00781ZM3.4375 17.0625C4.89583 18.5208 6.66667 19.25 8.75 19.25C10.8333 19.25 12.6042 18.5208 14.0625 17.0625C15.5208 15.6042 16.25 13.8333 16.25 11.75C16.25 9.66667 15.5208 7.89583 14.0625 6.4375C12.6042 4.97917 10.8333 4.25 8.75 4.25C6.66667 4.25 4.89583 4.97917 3.4375 6.4375C1.97917 7.89583 1.25 9.66667 1.25 11.75C1.25 13.8333 1.97917 15.6042 3.4375 17.0625ZM8.90625 14.25H8.59375C8.28125 14.25 8.125 14.0938 8.125 13.7812V7.21875C8.125 6.90625 8.28125 6.75 8.59375 6.75H8.90625C9.21875 6.75 9.375 6.90625 9.375 7.21875V13.7812C9.375 14.0938 9.21875 14.25 8.90625 14.25Z" fill="white"/>
</svg>
