<svg width="23" height="19" viewBox="0 0 23 19" fill="none" xmlns="http://www.w3.org/2000/svg">
<path d="M20.1172 0.75C20.7682 0.75 21.3281 0.984375 21.7969 1.45312C22.2656 1.89583 22.5 2.42969 22.5 3.05469V14.6562C22.5 15.2552 22.2786 15.776 21.8359 16.2188C21.3932 16.6615 20.8594 16.9089 20.2344 16.9609C17.2396 17.0911 14.8698 17.4818 13.125 18.1328C12.9167 18.2109 12.7083 18.25 12.5 18.25H10C9.79167 18.25 9.58333 18.2109 9.375 18.1328C7.63021 17.4818 5.26042 17.0911 2.26562 16.9609C1.64062 16.9089 1.10677 16.6615 0.664062 16.2188C0.221354 15.776 0 15.2552 0 14.6562V3.05469C0 2.42969 0.234375 1.89583 0.703125 1.45312C1.17188 0.984375 1.73177 0.75 2.38281 0.75C3.32031 0.75 4.67448 0.90625 6.44531 1.21875C8.21615 1.50521 9.72656 1.97396 10.9766 2.625C11.1589 2.72917 11.3411 2.72917 11.5234 2.625C12.7734 1.97396 14.2839 1.50521 16.0547 1.21875C17.8255 0.90625 19.1797 0.75 20.1172 0.75ZM10.625 16.4141V8.48438V4.57812C10.625 4.08333 10.3776 3.71875 9.88281 3.48438C8.71094 2.96354 7.35677 2.58594 5.82031 2.35156C4.28385 2.11719 3.13802 2 2.38281 2C2.2526 2 2.1224 2.02604 1.99219 2.07812C1.88802 2.10417 1.78385 2.15625 1.67969 2.23438C1.60156 2.28646 1.52344 2.35156 1.44531 2.42969C1.39323 2.50781 1.34115 2.61198 1.28906 2.74219C1.26302 2.84635 1.25 2.95052 1.25 3.05469V14.6562C1.25 14.9167 1.35417 15.151 1.5625 15.3594C1.77083 15.5677 2.01823 15.6849 2.30469 15.7109C5.45573 15.8672 7.95573 16.2839 9.80469 16.9609C9.88281 16.987 9.96094 17 10.0391 17C10.1953 17 10.3255 16.9479 10.4297 16.8438C10.5599 16.7135 10.625 16.5703 10.625 16.4141ZM21.25 14.6562V3.05469C21.25 2.76823 21.1328 2.52083 20.8984 2.3125C20.6901 2.10417 20.4297 2 20.1172 2C19.362 2 18.2161 2.11719 16.6797 2.35156C15.1432 2.58594 13.7891 2.96354 12.6172 3.48438C12.1224 3.71875 11.875 4.08333 11.875 4.57812V8.48438V16.4141C11.875 16.5703 11.9271 16.7135 12.0312 16.8438C12.1615 16.9479 12.3047 17 12.4609 17C12.5391 17 12.6172 16.987 12.6953 16.9609C14.5443 16.2839 17.0443 15.8672 20.1953 15.7109C20.4818 15.6849 20.7292 15.5677 20.9375 15.3594C21.1458 15.151 21.25 14.9167 21.25 14.6562Z" fill="white"/>
</svg>
