<svg width="15" height="21" viewBox="0 0 15 21" fill="none" xmlns="http://www.w3.org/2000/svg">
<path d="M4.84375 5.34375C5.57292 4.61458 6.45833 4.25 7.5 4.25C8.54167 4.25 9.42708 4.61458 10.1562 5.34375C10.8854 6.07292 11.25 6.95833 11.25 8C11.25 9.04167 10.8854 9.92708 10.1562 10.6562C9.42708 11.3854 8.54167 11.75 7.5 11.75C6.45833 11.75 5.57292 11.3854 4.84375 10.6562C4.11458 9.92708 3.75 9.04167 3.75 8C3.75 6.95833 4.11458 6.07292 4.84375 5.34375ZM5.74219 9.75781C6.23698 10.2526 6.82292 10.5 7.5 10.5C8.17708 10.5 8.76302 10.2526 9.25781 9.75781C9.7526 9.26302 10 8.67708 10 8C10 7.32292 9.7526 6.73698 9.25781 6.24219C8.76302 5.7474 8.17708 5.5 7.5 5.5C6.82292 5.5 6.23698 5.7474 5.74219 6.24219C5.2474 6.73698 5 7.32292 5 8C5 8.67708 5.2474 9.26302 5.74219 9.75781ZM2.1875 2.6875C3.64583 1.22917 5.41667 0.5 7.5 0.5C9.58333 0.5 11.3542 1.22917 12.8125 2.6875C14.2708 4.14583 15 5.91667 15 8C15 8.44271 14.974 8.83333 14.9219 9.17188C14.8958 9.48438 14.7917 9.86198 14.6094 10.3047C14.4531 10.7474 14.2969 11.112 14.1406 11.3984C14.0104 11.6849 13.724 12.1797 13.2812 12.8828C12.8385 13.5599 12.4479 14.1328 12.1094 14.6016C11.7708 15.0703 11.1979 15.8776 10.3906 17.0234C9.60938 18.1693 8.90625 19.1979 8.28125 20.1094C8.09896 20.3698 7.83854 20.5 7.5 20.5C7.16146 20.5 6.90104 20.3698 6.71875 20.1094C6.09375 19.1979 5.3776 18.1693 4.57031 17.0234C3.78906 15.8776 3.22917 15.0703 2.89062 14.6016C2.55208 14.1328 2.16146 13.5599 1.71875 12.8828C1.27604 12.1797 0.976562 11.6849 0.820312 11.3984C0.690104 11.112 0.533854 10.7474 0.351562 10.3047C0.195312 9.86198 0.0911458 9.48438 0.0390625 9.17188C0.0130208 8.83333 0 8.44271 0 8C0 5.91667 0.729167 4.14583 2.1875 2.6875ZM7.5 19.0156C8.04688 18.2083 8.64583 17.3359 9.29688 16.3984C9.97396 15.4609 10.4688 14.7708 10.7812 14.3281C11.0938 13.8594 11.4453 13.3385 11.8359 12.7656C12.2526 12.1927 12.5391 11.763 12.6953 11.4766C12.8516 11.1901 13.0208 10.8776 13.2031 10.5391C13.3854 10.2005 13.5026 9.91406 13.5547 9.67969C13.6068 9.41927 13.6458 9.15885 13.6719 8.89844C13.724 8.63802 13.75 8.33854 13.75 8C13.75 6.28125 13.138 4.8099 11.9141 3.58594C10.6901 2.36198 9.21875 1.75 7.5 1.75C5.78125 1.75 4.3099 2.36198 3.08594 3.58594C1.86198 4.8099 1.25 6.28125 1.25 8C1.25 8.33854 1.26302 8.63802 1.28906 8.89844C1.34115 9.15885 1.39323 9.41927 1.44531 9.67969C1.4974 9.91406 1.61458 10.2005 1.79688 10.5391C1.97917 10.8776 2.14844 11.1901 2.30469 11.4766C2.46094 11.763 2.73438 12.1927 3.125 12.7656C3.54167 13.3385 3.90625 13.8594 4.21875 14.3281C4.53125 14.7708 5.01302 15.4609 5.66406 16.3984C6.34115 17.3359 6.95312 18.2083 7.5 19.0156Z" fill="white"/>
</svg>
