<svg width="18" height="21" viewBox="0 0 18 21" fill="none" xmlns="http://www.w3.org/2000/svg">
<path d="M12.2656 9.05469C11.3021 10.0182 10.1302 10.5 8.75 10.5C7.36979 10.5 6.1849 10.0182 5.19531 9.05469C4.23177 8.0651 3.75 6.88021 3.75 5.5C3.75 4.11979 4.23177 2.94792 5.19531 1.98438C6.1849 0.994792 7.36979 0.5 8.75 0.5C10.1302 0.5 11.3021 0.994792 12.2656 1.98438C13.2552 2.94792 13.75 4.11979 13.75 5.5C13.75 6.88021 13.2552 8.0651 12.2656 9.05469ZM11.4062 2.84375C10.6771 2.11458 9.79167 1.75 8.75 1.75C7.70833 1.75 6.82292 2.11458 6.09375 2.84375C5.36458 3.57292 5 4.45833 5 5.5C5 6.54167 5.36458 7.42708 6.09375 8.15625C6.82292 8.88542 7.70833 9.25 8.75 9.25C9.79167 9.25 10.6771 8.88542 11.4062 8.15625C12.1354 7.42708 12.5 6.54167 12.5 5.5C12.5 4.45833 12.1354 3.57292 11.4062 2.84375ZM12.3438 12.375C13.776 12.401 14.987 12.9219 15.9766 13.9375C16.9922 14.9531 17.5 16.1771 17.5 17.6094V18.625C17.5 19.1458 17.3177 19.5885 16.9531 19.9531C16.5885 20.3177 16.1458 20.5 15.625 20.5H1.875C1.35417 20.5 0.911458 20.3177 0.546875 19.9531C0.182292 19.5885 0 19.1458 0 18.625V17.6094C0 16.1771 0.494792 14.9531 1.48438 13.9375C2.5 12.9219 3.72396 12.401 5.15625 12.375L6.71875 17.7656L8.04688 13.7812L7.07031 12.8047C6.86198 12.6224 6.8099 12.401 6.91406 12.1406C7.01823 11.8802 7.21354 11.75 7.5 11.75H10C10.2865 11.75 10.4818 11.8802 10.5859 12.1406C10.6901 12.401 10.638 12.6224 10.4297 12.8047L9.45312 13.7812L10.7812 17.7656L12.3438 12.375ZM1.875 19.25H5.85938L4.25781 13.7812C3.6849 13.9115 3.16406 14.1719 2.69531 14.5625C2.2526 14.9271 1.90104 15.3828 1.64062 15.9297C1.38021 16.4505 1.25 17.0104 1.25 17.6094V18.625C1.25 18.8073 1.30208 18.9505 1.40625 19.0547C1.53646 19.1849 1.69271 19.25 1.875 19.25ZM7.53906 19.25H9.96094L8.75 15.6172L7.53906 19.25ZM16.25 18.625V17.6094C16.25 16.6979 15.9635 15.8906 15.3906 15.1875C14.8177 14.4583 14.1016 13.9896 13.2422 13.7812L11.6406 19.25H15.625C15.8073 19.25 15.9505 19.1849 16.0547 19.0547C16.1849 18.9505 16.25 18.8073 16.25 18.625Z" fill="white"/>
</svg>
