<?xml version="1.0" encoding="iso-8859-1"?>
<!-- Generator: Adobe Illustrator 19.0.0, SVG Export Plug-In . SVG Version: 6.00 Build 0)  -->
<svg version="1.1" id="Layer_1" xmlns="http://www.w3.org/2000/svg" xmlns:xlink="http://www.w3.org/1999/xlink" x="0px" y="0px"
	 viewBox="0 0 481.882 481.882" style="enable-background:new 0 0 481.882 481.882;" xml:space="preserve">
<g>
	<polygon style="fill:#C5CAE9;" points="331.294,338.808 316.235,331.279 165.647,331.279 150.588,338.808 240.941,481.882 	"/>
	<path style="fill:#C5CAE9;" d="M260.924,338.824h-19.983h-19.991c-6.445,0-12.582-2.748-16.866-7.56l-38.438-30.087v33.882
		c0,0,0,56.471,75.294,56.471s75.294-56.471,75.294-56.471v-33.882l-38.438,30.087C273.513,336.075,267.384,338.824,260.924,338.824
		z"/>
</g>
<g>
	<path style="fill:#E8EAF6;" d="M204.085,331.264l-38.438-30.087v33.882c0,0,0,56.471,75.294,56.471v-52.706h-19.991
		C214.505,338.824,208.369,336.075,204.085,331.264z"/>
	<path style="fill:#E8EAF6;" d="M353.882,165.692c-3.17,0-5.542,0.76-7.529,1.815c0-19.659-0.572-37.436-3.659-52.826
		c-20.781-5.745-57.427-13.719-101.549-14.072V100.6c-0.068,0-0.136,0-0.203,0s-0.136,0-0.203,0v0.008
		c-44.13,0.346-80.776,8.328-101.549,14.072c-2.997,14.901-3.622,32.068-3.659,50.982v60.22l30.118,75.294l38.438,30.087
		c4.284,4.811,10.421,7.56,16.866,7.56h19.991h19.983c6.453,0,12.589-2.748,16.866-7.56l38.445-30.087l24.139-60.341
		c21.353-1.528,28.567-33.912,28.567-58.413C368.941,174.057,361.412,165.692,353.882,165.692z"/>
</g>
<path style="fill:#FFFFFF;" d="M240.738,100.616c-44.115,0.346-80.753,8.328-101.527,14.065c-3.11,15.398-3.682,33.19-3.682,52.872
	c-1.98-1.054-4.36-1.815-7.529-1.815c-7.529,0-15.059,8.365-15.059,16.73c0,24.501,7.213,56.892,28.567,58.413l24.139,60.341
	l38.438,30.088c4.284,4.811,10.421,7.56,16.866,7.56h19.991V100.608C240.873,100.608,240.806,100.608,240.738,100.616
	L240.738,100.616z"/>
<g>
	<path style="fill:#1A3B7E;" d="M218.308,181.007c0-8.312-6.746-15.059-15.059-15.059c-0.015,0-0.03,0-0.045,0
		c0.008,0.158,0.045,0.316,0.045,0.467c0,8.312-6.716,15.029-15.014,15.059c0.248,8.094,6.852,14.592,15.014,14.592
		C211.561,196.066,218.308,189.32,218.308,181.007z"/>
	<path style="fill:#1A3B7E;" d="M293.542,181.007c0-8.312-6.746-15.059-15.059-15.059c-0.015,0-0.03,0-0.045,0
		c0,0.158,0.045,0.316,0.045,0.467c0,8.312-6.709,15.029-15.006,15.059c0.241,8.094,6.844,14.592,15.006,14.592
		C286.81,196.066,293.542,189.32,293.542,181.007z"/>
</g>
<path style="fill:#1E88E5;" d="M203.294,256.045h75.294c0,0,0,22.588-37.647,22.588S203.294,256.045,203.294,256.045z"/>
<g>
	<polygon style="fill:#1565C0;" points="143.059,120.516 143.059,200.591 135.529,200.591 120.471,170.473 120.471,120.516 	"/>
	<polygon style="fill:#1565C0;" points="338.824,120.516 338.824,200.591 346.353,200.591 361.412,170.473 361.412,120.516 	"/>
</g>
<path style="fill:#2979FF;" d="M128,135.529c0,0-7.529-112.941,112.941-112.941c0,60.235,0,112.941,0,112.941H128z"/>
<path style="fill:#2962FF;" d="M353.882,135.529c0,0,7.529-112.941-112.941-112.941c0,60.235,0,112.941,0,112.941H353.882z"/>
<path style="fill:#448AFF;" d="M263.529,60.235V15.059C263.529,6.746,256.783,0,248.471,0h-15.059
	c-8.312,0-15.059,6.746-15.059,15.059v45.176c0.504,13.297-14.464,58.142-52.706,60.235c36.54,0,48.986,0,52.706,0h1.423h42.33
	h1.423c3.72,0,16.158,0,52.706,0C277.993,118.377,263.032,73.532,263.529,60.235z"/>
<path style="fill:#2962FF;" d="M376.471,137.404c0,3.418-2.296,6.4-5.602,7.273c-14.63,3.878-57.939,13.44-129.928,13.44
	c-71.996,0-115.298-9.562-129.928-13.448c-3.298-0.873-5.602-3.855-5.602-7.266v-1.875c0-8.312,6.746-15.059,15.059-15.059h240.941
	c8.312,0,15.059,6.746,15.059,15.059V137.404z"/>
<g>
	<path style="fill:#2979FF;" d="M120.471,120.471c-8.312,0-15.059,6.746-15.059,15.059v1.875c0,3.411,2.304,6.4,5.602,7.273
		c14.63,3.878,57.931,13.44,129.928,13.44v-37.647H120.471z"/>
	<polygon style="fill:#2979FF;" points="271.059,481.882 249.984,405.082 263.529,391.544 240.798,368.783 218.225,391.356 
		231.913,405.037 210.824,481.882 	"/>
</g>
<polygon style="fill:#448AFF;" points="240.941,481.882 240.941,368.926 240.798,368.783 218.225,391.356 231.913,405.037 
	210.824,481.882 "/>
<g>
	<path style="fill:#1A3B7E;" d="M0,481.882l30.118-82.824c4.631-10.037,12.785-18.033,22.904-22.453l97.566-37.783l90.353,143.059H0
		z"/>
	<path style="fill:#1A3B7E;" d="M481.882,481.882l-30.118-82.824c-4.631-10.037-12.785-18.033-22.912-22.453l-97.559-37.783
		l-90.353,143.059H481.882z"/>
</g>
<g>
	<polygon style="fill:#FFFFFF;" points="331.031,339.268 331.294,338.824 316.235,331.294 241.054,368.791 284.68,412.664 	"/>
	<polygon style="fill:#FFFFFF;" points="150.852,339.268 150.588,338.824 165.647,331.294 240.828,368.791 197.21,412.664 	"/>
	<rect x="323.765" y="429.161" style="fill:#FFFFFF;" width="75.294" height="15.059"/>
</g>
<g>
</g>
<g>
</g>
<g>
</g>
<g>
</g>
<g>
</g>
<g>
</g>
<g>
</g>
<g>
</g>
<g>
</g>
<g>
</g>
<g>
</g>
<g>
</g>
<g>
</g>
<g>
</g>
<g>
</g>
</svg>
